<?xml version="1.0" encoding="UTF-8"?><svg xmlns="http://www.w3.org/2000/svg" xmlns:xlink="http://www.w3.org/1999/xlink" stroke-dasharray="none" shape-rendering="auto" font-family="'Dialog'" width="434" text-rendering="auto" fill-opacity="1" contentScriptType="text/ecmascript" color-interpolation="auto" color-rendering="auto" preserveAspectRatio="xMidYMid meet" font-size="12" viewBox="0 0 434 88" fill="black" stroke="black" image-rendering="auto" stroke-miterlimit="10" zoomAndPan="magnify" version="1.0" stroke-linecap="square" stroke-linejoin="miter" contentStyleType="text/css" font-style="normal" height="88" stroke-width="1" stroke-dashoffset="0" font-weight="normal" stroke-opacity="1">
<!--Generated by the Batik Graphics2D SVG Generator-->
<defs id="genericDefs"/>
<g>
<defs id="defs1">
<clipPath clipPathUnits="userSpaceOnUse" id="clipPath1">
<path d="M12 19 L34 19 L34 41 L12 41 L12 19 Z"/>
</clipPath>
<clipPath clipPathUnits="userSpaceOnUse" id="clipPath2">
<path d="M96 9 L169 9 L169 51 L96 51 L96 9 Z"/>
</clipPath>
<clipPath clipPathUnits="userSpaceOnUse" id="clipPath3">
<path d="M102 21 L163 21 L163 38 L102 38 L102 21 Z"/>
</clipPath>
<clipPath clipPathUnits="userSpaceOnUse" id="clipPath4">
<path d="M240 9 L297 9 L297 51 L240 51 L240 9 Z"/>
</clipPath>
<clipPath clipPathUnits="userSpaceOnUse" id="clipPath5">
<path d="M246 21 L291 21 L291 38 L246 38 L246 21 Z"/>
</clipPath>
<clipPath clipPathUnits="userSpaceOnUse" id="clipPath6">
<path d="M408 19 L425 19 L425 36 L408 36 L408 19 Z"/>
</clipPath>
<clipPath clipPathUnits="userSpaceOnUse" id="clipPath7">
<path d="M410 21 L423 21 L423 34 L410 34 L410 21 Z"/>
</clipPath>
<clipPath clipPathUnits="userSpaceOnUse" id="clipPath8">
<path d="M413 24 L420 24 L420 31 L413 31 L413 24 Z"/>
</clipPath>
<clipPath clipPathUnits="userSpaceOnUse" id="clipPath9">
<path d="M312 17 L333 17 L333 38 L312 38 L312 17 Z"/>
</clipPath>
<clipPath clipPathUnits="userSpaceOnUse" id="clipPath10">
<path d="M-1 -1 L435 -1 L435 89 L-1 89 L-1 -1 Z"/>
</clipPath>
<clipPath clipPathUnits="userSpaceOnUse" id="clipPath11">
<path d="M89 26 L99 26 L99 35 L89 35 L89 26 Z"/>
</clipPath>
<clipPath clipPathUnits="userSpaceOnUse" id="clipPath12">
<path d="M-1 -1 L435 -1 L435 89 L-1 89 L-1 -1 Z"/>
</clipPath>
<clipPath clipPathUnits="userSpaceOnUse" id="clipPath13">
<path d="M233 26 L243 26 L243 35 L233 35 L233 26 Z"/>
</clipPath>
<clipPath clipPathUnits="userSpaceOnUse" id="clipPath14">
<path d="M-1 -1 L435 -1 L435 89 L-1 89 L-1 -1 Z"/>
</clipPath>
<clipPath clipPathUnits="userSpaceOnUse" id="clipPath15">
<path d="M305 23 L315 23 L315 32 L305 32 L305 23 Z"/>
</clipPath>
<clipPath clipPathUnits="userSpaceOnUse" id="clipPath16">
<path d="M-1 -1 L435 -1 L435 89 L-1 89 L-1 -1 Z"/>
</clipPath>
<clipPath clipPathUnits="userSpaceOnUse" id="clipPath17">
<path d="M150 42 L160 42 L160 52 L150 52 L150 42 Z"/>
</clipPath>
<clipPath clipPathUnits="userSpaceOnUse" id="clipPath18">
<path d="M-1 -1 L435 -1 L435 89 L-1 89 L-1 -1 Z"/>
</clipPath>
<clipPath clipPathUnits="userSpaceOnUse" id="clipPath19">
<path d="M269 44 L280 44 L280 52 L269 52 L269 44 Z"/>
</clipPath>
<clipPath clipPathUnits="userSpaceOnUse" id="clipPath20">
<path d="M-1 -1 L435 -1 L435 89 L-1 89 L-1 -1 Z"/>
</clipPath>
<clipPath clipPathUnits="userSpaceOnUse" id="clipPath21">
<path d="M148 49 L157 49 L157 59 L148 59 L148 49 Z"/>
</clipPath>
<clipPath clipPathUnits="userSpaceOnUse" id="clipPath22">
<path d="M-1 -1 L435 -1 L435 89 L-1 89 L-1 -1 Z"/>
</clipPath>
<clipPath clipPathUnits="userSpaceOnUse" id="clipPath23">
<path d="M401 23 L411 23 L411 32 L401 32 L401 23 Z"/>
</clipPath>
</defs>
<g fill="white" stroke-miterlimit="0" stroke-width="0" stroke="white" stroke-linejoin="round">
<circle clip-path="url(#clipPath1)" fill="black" r="6.5" cx="22.5" cy="31.5" stroke="none"/>
<rect x="14" y="20" clip-path="url(#clipPath1)" fill="black" width="18" height="3" stroke="none"/>
</g>
<g fill="white" stroke-miterlimit="0" stroke-width="0" stroke="white" stroke-linejoin="round">
<rect x="97" y="10" clip-path="url(#clipPath2)" uuid="_EonKAOpmEeK_pvf5APxfpw" width="71" rx="4" ry="4" height="40" stroke="none" stroke-width="1.1"/>
</g>
<g fill="rgb(176,176,176)" stroke-width="1.1" stroke-linecap="butt" stroke="rgb(176,176,176)">
<rect x="97" y="10" clip-path="url(#clipPath2)" fill="none" width="70" rx="4" ry="4" height="39"/>
<text x="103" y="35" clip-path="url(#clipPath3)" fill="black" stroke="none" xml:space="preserve">Uninfected</text>
</g>
<g fill="white" stroke-width="1.1" stroke-linecap="butt" stroke="white">
<rect x="241" y="10" clip-path="url(#clipPath4)" uuid="_Fu4OgepmEeK_pvf5APxfpw" width="55" rx="4" ry="4" height="40" stroke="none"/>
<rect x="241" y="10" clip-path="url(#clipPath4)" fill="none" width="54" rx="4" ry="4" height="39" stroke="rgb(176,176,176)"/>
<text x="247" y="35" clip-path="url(#clipPath5)" fill="black" stroke="none" xml:space="preserve">Infected</text>
</g>
<g fill="white" stroke-width="1.1" stroke-linecap="butt" stroke="white">
<circle clip-path="url(#clipPath6)" fill="black" uuid="_GsefMOpmEeK_pvf5APxfpw" r="6.5" cx="415.5" cy="26.5" stroke="none"/>
<circle r="4.5" clip-path="url(#clipPath7)" cx="415.5" cy="26.5" stroke="none"/>
<circle clip-path="url(#clipPath8)" fill="black" r="1.5" cx="415.5" cy="26.5" stroke="none"/>
</g>
<g fill="white" stroke-width="1.1" stroke-linecap="butt" stroke="white">
<polygon uuid="_1CIH4OpmEeK_pvf5APxfpw" clip-path="url(#clipPath9)" points=" 322 18 332 27 322 37 313 27" stroke="none"/>
<polygon fill="none" stroke-width="2.1" clip-path="url(#clipPath9)" points=" 322 19 330 27 322 35 314 27" stroke="black"/>
</g>
<g stroke-linecap="butt">
<line clip-path="url(#clipPath10)" fill="none" uuid="_HT32YepmEeK_pvf5APxfpw" x1="23" x2="97" y1="30" y2="30"/>
<polygon uuid="_HT32YepmEeK_pvf5APxfpw" clip-path="url(#clipPath11)" points=" 97 30 90 33 90 27" stroke="none"/>
<polygon uuid="_HT32YepmEeK_pvf5APxfpw" fill="none" clip-path="url(#clipPath11)" points=" 97 30 90 33 90 27"/>
</g>
<g stroke-linecap="butt">
<line clip-path="url(#clipPath12)" fill="none" uuid="_HpUh8OpmEeK_pvf5APxfpw" x1="168" x2="241" y1="30" y2="30"/>
<polygon uuid="_HpUh8OpmEeK_pvf5APxfpw" clip-path="url(#clipPath13)" points=" 241 30 234 33 234 27" stroke="none"/>
<polygon uuid="_HpUh8OpmEeK_pvf5APxfpw" fill="none" clip-path="url(#clipPath13)" points=" 241 30 234 33 234 27"/>
</g>
<g stroke-linecap="butt">
<line clip-path="url(#clipPath14)" fill="none" uuid="_IMTTMepmEeK_pvf5APxfpw" x1="296" x2="313" y1="27" y2="27"/>
<polygon uuid="_IMTTMepmEeK_pvf5APxfpw" clip-path="url(#clipPath15)" points=" 313 27 306 30 306 24" stroke="none"/>
<polygon uuid="_IMTTMepmEeK_pvf5APxfpw" fill="none" clip-path="url(#clipPath15)" points=" 313 27 306 30 306 24"/>
</g>
<g stroke-linecap="butt">
<line clip-path="url(#clipPath16)" fill="none" uuid="_KhawcepmEeK_pvf5APxfpw" x1="168" x2="151" y1="29" y2="50"/>
<polygon uuid="_KhawcepmEeK_pvf5APxfpw" clip-path="url(#clipPath17)" points=" 151 50 153 43 158 46" stroke="none"/>
<polygon uuid="_KhawcepmEeK_pvf5APxfpw" fill="none" clip-path="url(#clipPath17)" points=" 151 50 153 43 158 46"/>
</g>
<g stroke-linecap="butt">
<line clip-path="url(#clipPath18)" fill="none" uuid="_rKwaIOpmEeK_pvf5APxfpw" x1="296" x2="270" y1="40" y2="50"/>
<polygon uuid="_rKwaIOpmEeK_pvf5APxfpw" clip-path="url(#clipPath19)" points=" 270 50 275 45 278 50" stroke="none"/>
<polygon uuid="_rKwaIOpmEeK_pvf5APxfpw" fill="none" clip-path="url(#clipPath19)" points=" 270 50 275 45 278 50"/>
</g>
<g stroke-linecap="butt">
<line clip-path="url(#clipPath20)" fill="none" uuid="_wBWVoOpmEeK_pvf5APxfpw" x1="322" x2="324" y1="37" y2="64"/>
<line clip-path="url(#clipPath20)" fill="none" uuid="_wBWVoOpmEeK_pvf5APxfpw" x1="324" x2="152" y1="64" y2="64"/>
<line clip-path="url(#clipPath20)" fill="none" uuid="_wBWVoOpmEeK_pvf5APxfpw" x1="152" x2="152" y1="64" y2="50"/>
<polygon uuid="_wBWVoOpmEeK_pvf5APxfpw" clip-path="url(#clipPath21)" points=" 152 50 155 57 149 57" stroke="none"/>
<polygon uuid="_wBWVoOpmEeK_pvf5APxfpw" fill="none" clip-path="url(#clipPath21)" points=" 152 50 155 57 149 57"/>
</g>
<g stroke-linecap="butt">
<line clip-path="url(#clipPath22)" fill="none" uuid="_2mI4UOpmEeK_pvf5APxfpw" x1="332" x2="409" y1="27" y2="27"/>
<polygon uuid="_2mI4UOpmEeK_pvf5APxfpw" clip-path="url(#clipPath23)" points=" 409 27 402 30 402 24" stroke="none"/>
<polygon uuid="_2mI4UOpmEeK_pvf5APxfpw" fill="none" clip-path="url(#clipPath23)" points=" 409 27 402 30 402 24"/>
</g>
</g>
</svg>
